<svg width="18" height="18" viewBox="0 0 18 18" fill="none" xmlns="http://www.w3.org/2000/svg">
<path d="M2.03025 18H8.63325C8.94375 18 9.19575 17.748 9.19575 17.4375C9.19575 17.3175 9.18825 12.3075 9.1875 12.1875C9.1875 11.877 8.9355 11.625 8.625 11.625H6.9375V9.75H8.625C8.9355 9.75 9.1875 9.498 9.1875 9.1875V7.07475C9.1875 5.24175 10.6793 3.75 12.5123 3.75H14.0625V5.625H13.125C12.4012 5.625 11.8125 6.21375 11.8125 6.9375V9.1875C11.8125 9.498 12.0645 9.75 12.375 9.75H14.655L14.1863 11.625H12.375C12.0645 11.625 11.8125 11.877 11.8125 12.1875V17.4375C11.8125 17.748 12.0645 18 12.375 18H15.9697C17.0895 18 18 17.0895 18 15.9697V2.03025C18 0.9105 17.0895 0 15.9697 0H2.03025C0.9105 0 0 0.9105 0 2.03025V15.9705C0 17.0895 0.9105 18 2.03025 18ZM1.125 2.03025C1.125 1.53075 1.53075 1.125 2.03025 1.125H15.9705C16.47 1.125 16.8757 1.53075 16.8757 2.03025V15.9705C16.8757 16.47 16.47 16.8757 15.9705 16.8757H12.9375V12.75H14.625C14.883 12.75 15.108 12.5745 15.171 12.324L15.921 9.324C16.0095 8.96925 15.7417 8.625 15.375 8.625H12.9375V6.9375C12.9375 6.8355 13.023 6.75 13.125 6.75H14.625C14.9355 6.75 15.1875 6.498 15.1875 6.1875V3.1875C15.1875 2.877 14.9355 2.625 14.625 2.625H12.5123C10.059 2.625 8.0625 4.6215 8.0625 7.07475V8.625H6.375C6.0645 8.625 5.8125 8.877 5.8125 9.1875V12.1875C5.8125 12.498 6.0645 12.75 6.375 12.75H8.0625V16.875H2.03025C1.53075 16.875 1.125 16.4692 1.125 15.9697V2.03025Z" fill="white"/>
</svg>
