<svg width="18" height="17" viewBox="0 0 18 17" fill="none" xmlns="http://www.w3.org/2000/svg">
<path d="M0.311246 8.39697L4.713 10.5907C4.88325 10.6747 5.08425 10.6687 5.247 10.5735L9.165 8.29572L6.7935 10.3972C6.67275 10.5045 6.60375 10.6575 6.60375 10.8187V15.9375C6.60375 16.4775 7.293 16.7047 7.61625 16.2757L9.519 13.746L14.2245 16.4257C14.5545 16.6155 14.9775 16.425 15.054 16.0477L17.9887 1.42272C18.0765 0.983222 17.6392 0.624722 17.2327 0.788222L0.357746 7.36947C-0.0952535 7.54647 -0.124504 8.18022 0.311246 8.39697ZM16.6837 2.21022L14.1045 15.063L9.64575 12.5235C9.40275 12.3847 9.09 12.4462 8.9175 12.6742L7.72875 14.2545V11.0715L14.142 5.38947C14.6497 4.94022 14.0662 4.14147 13.4865 4.48197L4.944 9.44847L1.95 7.95672L16.6837 2.21022Z" fill="white"/>
</svg>
